<?xml version="1.0" encoding="utf-8" standalone="no"?>
<!DOCTYPE svg PUBLIC "-//W3C//DTD SVG 1.1//EN"
  "http://www.w3.org/Graphics/SVG/1.1/DTD/svg11.dtd">
<!-- Created with matplotlib (https://matplotlib.org/) -->
<svg height="246.965pt" version="1.1" viewBox="0 0 371.2 246.965" width="371.2pt" xmlns="http://www.w3.org/2000/svg" xmlns:xlink="http://www.w3.org/1999/xlink">
 <metadata>
  <rdf:RDF xmlns:cc="http://creativecommons.org/ns#" xmlns:dc="http://purl.org/dc/elements/1.1/" xmlns:rdf="http://www.w3.org/1999/02/22-rdf-syntax-ns#">
   <cc:Work>
    <dc:type rdf:resource="http://purl.org/dc/dcmitype/StillImage"/>
    <dc:date>2020-09-12T09:42:31.078975</dc:date>
    <dc:format>image/svg+xml</dc:format>
    <dc:creator>
     <cc:Agent>
      <dc:title>Matplotlib v3.3.1, https://matplotlib.org/</dc:title>
     </cc:Agent>
    </dc:creator>
   </cc:Work>
  </rdf:RDF>
 </metadata>
 <defs>
  <style type="text/css">*{stroke-linecap:butt;stroke-linejoin:round;}</style>
 </defs>
 <g id="figure_1">
  <g id="patch_1">
   <path d="M 0 246.965 
L 371.2 246.965 
L 371.2 0 
L 0 0 
z
" style="fill:none;"/>
  </g>
  <g id="axes_1">
   <g id="patch_2">
    <path d="M 29.2 224.64 
L 364 224.64 
L 364 7.2 
L 29.2 7.2 
z
" style="fill:#ffffff;"/>
   </g>
   <g id="patch_3">
    <path clip-path="url(#p6f589562d4)" d="M 44.418182 224.64 
L 47.461818 224.64 
L 47.461818 17.554286 
L 44.418182 17.554286 
z
" style="fill:#1f77b4;"/>
   </g>
   <g id="patch_4">
    <path clip-path="url(#p6f589562d4)" d="M 47.461818 224.64 
L 50.505455 224.64 
L 50.505455 211.573878 
L 47.461818 211.573878 
z
" style="fill:#1f77b4;"/>
   </g>
   <g id="patch_5">
    <path clip-path="url(#p6f589562d4)" d="M 50.505455 224.64 
L 53.549091 224.64 
L 53.549091 204.917551 
L 50.505455 204.917551 
z
" style="fill:#1f77b4;"/>
   </g>
   <g id="patch_6">
    <path clip-path="url(#p6f589562d4)" d="M 53.549091 224.64 
L 56.592727 224.64 
L 56.592727 197.521633 
L 53.549091 197.521633 
z
" style="fill:#1f77b4;"/>
   </g>
   <g id="patch_7">
    <path clip-path="url(#p6f589562d4)" d="M 56.592727 224.64 
L 59.636364 224.64 
L 59.636364 194.316735 
L 56.592727 194.316735 
z
" style="fill:#1f77b4;"/>
   </g>
   <g id="patch_8">
    <path clip-path="url(#p6f589562d4)" d="M 59.636364 224.64 
L 62.68 224.64 
L 62.68 196.28898 
L 59.636364 196.28898 
z
" style="fill:#1f77b4;"/>
   </g>
   <g id="patch_9">
    <path clip-path="url(#p6f589562d4)" d="M 62.68 224.64 
L 65.723636 224.64 
L 65.723636 198.754286 
L 62.68 198.754286 
z
" style="fill:#1f77b4;"/>
   </g>
   <g id="patch_10">
    <path clip-path="url(#p6f589562d4)" d="M 65.723636 224.64 
L 68.767273 224.64 
L 68.767273 207.629388 
L 65.723636 207.629388 
z
" style="fill:#1f77b4;"/>
   </g>
   <g id="patch_11">
    <path clip-path="url(#p6f589562d4)" d="M 68.767273 224.64 
L 71.810909 224.64 
L 71.810909 210.834286 
L 68.767273 210.834286 
z
" style="fill:#1f77b4;"/>
   </g>
   <g id="patch_12">
    <path clip-path="url(#p6f589562d4)" d="M 71.810909 224.64 
L 74.854545 224.64 
L 74.854545 213.546122 
L 71.810909 213.546122 
z
" style="fill:#1f77b4;"/>
   </g>
   <g id="patch_13">
    <path clip-path="url(#p6f589562d4)" d="M 74.854545 224.64 
L 77.898182 224.64 
L 77.898182 214.778776 
L 74.854545 214.778776 
z
" style="fill:#1f77b4;"/>
   </g>
   <g id="patch_14">
    <path clip-path="url(#p6f589562d4)" d="M 77.898182 224.64 
L 80.941818 224.64 
L 80.941818 218.476735 
L 77.898182 218.476735 
z
" style="fill:#1f77b4;"/>
   </g>
   <g id="patch_15">
    <path clip-path="url(#p6f589562d4)" d="M 80.941818 224.64 
L 83.985455 224.64 
L 83.985455 216.997551 
L 80.941818 216.997551 
z
" style="fill:#1f77b4;"/>
   </g>
   <g id="patch_16">
    <path clip-path="url(#p6f589562d4)" d="M 83.985455 224.64 
L 87.029091 224.64 
L 87.029091 219.709388 
L 83.985455 219.709388 
z
" style="fill:#1f77b4;"/>
   </g>
   <g id="patch_17">
    <path clip-path="url(#p6f589562d4)" d="M 87.029091 224.64 
L 90.072727 224.64 
L 90.072727 218.230204 
L 87.029091 218.230204 
z
" style="fill:#1f77b4;"/>
   </g>
   <g id="patch_18">
    <path clip-path="url(#p6f589562d4)" d="M 90.072727 224.64 
L 93.116364 224.64 
L 93.116364 219.709388 
L 90.072727 219.709388 
z
" style="fill:#1f77b4;"/>
   </g>
   <g id="patch_19">
    <path clip-path="url(#p6f589562d4)" d="M 93.116364 224.64 
L 96.16 224.64 
L 96.16 221.188571 
L 93.116364 221.188571 
z
" style="fill:#1f77b4;"/>
   </g>
   <g id="patch_20">
    <path clip-path="url(#p6f589562d4)" d="M 96.16 224.64 
L 99.203636 224.64 
L 99.203636 221.188571 
L 96.16 221.188571 
z
" style="fill:#1f77b4;"/>
   </g>
   <g id="patch_21">
    <path clip-path="url(#p6f589562d4)" d="M 99.203636 224.64 
L 102.247273 224.64 
L 102.247273 221.681633 
L 99.203636 221.681633 
z
" style="fill:#1f77b4;"/>
   </g>
   <g id="patch_22">
    <path clip-path="url(#p6f589562d4)" d="M 102.247273 224.64 
L 105.290909 224.64 
L 105.290909 222.914286 
L 102.247273 222.914286 
z
" style="fill:#1f77b4;"/>
   </g>
   <g id="patch_23">
    <path clip-path="url(#p6f589562d4)" d="M 105.290909 224.64 
L 108.334545 224.64 
L 108.334545 220.942041 
L 105.290909 220.942041 
z
" style="fill:#1f77b4;"/>
   </g>
   <g id="patch_24">
    <path clip-path="url(#p6f589562d4)" d="M 108.334545 224.64 
L 111.378182 224.64 
L 111.378182 223.160816 
L 108.334545 223.160816 
z
" style="fill:#1f77b4;"/>
   </g>
   <g id="patch_25">
    <path clip-path="url(#p6f589562d4)" d="M 111.378182 224.64 
L 114.421818 224.64 
L 114.421818 220.942041 
L 111.378182 220.942041 
z
" style="fill:#1f77b4;"/>
   </g>
   <g id="patch_26">
    <path clip-path="url(#p6f589562d4)" d="M 114.421818 224.64 
L 117.465455 224.64 
L 117.465455 222.421224 
L 114.421818 222.421224 
z
" style="fill:#1f77b4;"/>
   </g>
   <g id="patch_27">
    <path clip-path="url(#p6f589562d4)" d="M 117.465455 224.64 
L 120.509091 224.64 
L 120.509091 222.421224 
L 117.465455 222.421224 
z
" style="fill:#1f77b4;"/>
   </g>
   <g id="patch_28">
    <path clip-path="url(#p6f589562d4)" d="M 120.509091 224.64 
L 123.552727 224.64 
L 123.552727 222.421224 
L 120.509091 222.421224 
z
" style="fill:#1f77b4;"/>
   </g>
   <g id="patch_29">
    <path clip-path="url(#p6f589562d4)" d="M 123.552727 224.64 
L 126.596364 224.64 
L 126.596364 224.146939 
L 123.552727 224.146939 
z
" style="fill:#1f77b4;"/>
   </g>
   <g id="patch_30">
    <path clip-path="url(#p6f589562d4)" d="M 126.596364 224.64 
L 129.64 224.64 
L 129.64 223.407347 
L 126.596364 223.407347 
z
" style="fill:#1f77b4;"/>
   </g>
   <g id="patch_31">
    <path clip-path="url(#p6f589562d4)" d="M 129.64 224.64 
L 132.683636 224.64 
L 132.683636 223.407347 
L 129.64 223.407347 
z
" style="fill:#1f77b4;"/>
   </g>
   <g id="patch_32">
    <path clip-path="url(#p6f589562d4)" d="M 132.683636 224.64 
L 135.727273 224.64 
L 135.727273 224.146939 
L 132.683636 224.146939 
z
" style="fill:#1f77b4;"/>
   </g>
   <g id="patch_33">
    <path clip-path="url(#p6f589562d4)" d="M 135.727273 224.64 
L 138.770909 224.64 
L 138.770909 223.900408 
L 135.727273 223.900408 
z
" style="fill:#1f77b4;"/>
   </g>
   <g id="patch_34">
    <path clip-path="url(#p6f589562d4)" d="M 138.770909 224.64 
L 141.814545 224.64 
L 141.814545 223.653878 
L 138.770909 223.653878 
z
" style="fill:#1f77b4;"/>
   </g>
   <g id="patch_35">
    <path clip-path="url(#p6f589562d4)" d="M 141.814545 224.64 
L 144.858182 224.64 
L 144.858182 224.146939 
L 141.814545 224.146939 
z
" style="fill:#1f77b4;"/>
   </g>
   <g id="patch_36">
    <path clip-path="url(#p6f589562d4)" d="M 144.858182 224.64 
L 147.901818 224.64 
L 147.901818 224.393469 
L 144.858182 224.393469 
z
" style="fill:#1f77b4;"/>
   </g>
   <g id="patch_37">
    <path clip-path="url(#p6f589562d4)" d="M 147.901818 224.64 
L 150.945455 224.64 
L 150.945455 224.146939 
L 147.901818 224.146939 
z
" style="fill:#1f77b4;"/>
   </g>
   <g id="patch_38">
    <path clip-path="url(#p6f589562d4)" d="M 150.945455 224.64 
L 153.989091 224.64 
L 153.989091 224.393469 
L 150.945455 224.393469 
z
" style="fill:#1f77b4;"/>
   </g>
   <g id="patch_39">
    <path clip-path="url(#p6f589562d4)" d="M 153.989091 224.64 
L 157.032727 224.64 
L 157.032727 224.146939 
L 153.989091 224.146939 
z
" style="fill:#1f77b4;"/>
   </g>
   <g id="patch_40">
    <path clip-path="url(#p6f589562d4)" d="M 157.032727 224.64 
L 160.076364 224.64 
L 160.076364 224.393469 
L 157.032727 224.393469 
z
" style="fill:#1f77b4;"/>
   </g>
   <g id="patch_41">
    <path clip-path="url(#p6f589562d4)" d="M 160.076364 224.64 
L 163.12 224.64 
L 163.12 224.64 
L 160.076364 224.64 
z
" style="fill:#1f77b4;"/>
   </g>
   <g id="patch_42">
    <path clip-path="url(#p6f589562d4)" d="M 163.12 224.64 
L 166.163636 224.64 
L 166.163636 224.146939 
L 163.12 224.146939 
z
" style="fill:#1f77b4;"/>
   </g>
   <g id="patch_43">
    <path clip-path="url(#p6f589562d4)" d="M 166.163636 224.64 
L 169.207273 224.64 
L 169.207273 224.64 
L 166.163636 224.64 
z
" style="fill:#1f77b4;"/>
   </g>
   <g id="patch_44">
    <path clip-path="url(#p6f589562d4)" d="M 169.207273 224.64 
L 172.250909 224.64 
L 172.250909 224.393469 
L 169.207273 224.393469 
z
" style="fill:#1f77b4;"/>
   </g>
   <g id="patch_45">
    <path clip-path="url(#p6f589562d4)" d="M 172.250909 224.64 
L 175.294545 224.64 
L 175.294545 224.64 
L 172.250909 224.64 
z
" style="fill:#1f77b4;"/>
   </g>
   <g id="patch_46">
    <path clip-path="url(#p6f589562d4)" d="M 175.294545 224.64 
L 178.338182 224.64 
L 178.338182 224.393469 
L 175.294545 224.393469 
z
" style="fill:#1f77b4;"/>
   </g>
   <g id="patch_47">
    <path clip-path="url(#p6f589562d4)" d="M 178.338182 224.64 
L 181.381818 224.64 
L 181.381818 224.393469 
L 178.338182 224.393469 
z
" style="fill:#1f77b4;"/>
   </g>
   <g id="patch_48">
    <path clip-path="url(#p6f589562d4)" d="M 181.381818 224.64 
L 184.425455 224.64 
L 184.425455 224.64 
L 181.381818 224.64 
z
" style="fill:#1f77b4;"/>
   </g>
   <g id="patch_49">
    <path clip-path="url(#p6f589562d4)" d="M 184.425455 224.64 
L 187.469091 224.64 
L 187.469091 224.393469 
L 184.425455 224.393469 
z
" style="fill:#1f77b4;"/>
   </g>
   <g id="patch_50">
    <path clip-path="url(#p6f589562d4)" d="M 187.469091 224.64 
L 190.512727 224.64 
L 190.512727 224.64 
L 187.469091 224.64 
z
" style="fill:#1f77b4;"/>
   </g>
   <g id="patch_51">
    <path clip-path="url(#p6f589562d4)" d="M 190.512727 224.64 
L 193.556364 224.64 
L 193.556364 224.146939 
L 190.512727 224.146939 
z
" style="fill:#1f77b4;"/>
   </g>
   <g id="patch_52">
    <path clip-path="url(#p6f589562d4)" d="M 193.556364 224.64 
L 196.6 224.64 
L 196.6 224.393469 
L 193.556364 224.393469 
z
" style="fill:#1f77b4;"/>
   </g>
   <g id="patch_53">
    <path clip-path="url(#p6f589562d4)" d="M 196.6 224.64 
L 199.643636 224.64 
L 199.643636 224.64 
L 196.6 224.64 
z
" style="fill:#1f77b4;"/>
   </g>
   <g id="patch_54">
    <path clip-path="url(#p6f589562d4)" d="M 199.643636 224.64 
L 202.687273 224.64 
L 202.687273 224.64 
L 199.643636 224.64 
z
" style="fill:#1f77b4;"/>
   </g>
   <g id="patch_55">
    <path clip-path="url(#p6f589562d4)" d="M 202.687273 224.64 
L 205.730909 224.64 
L 205.730909 224.64 
L 202.687273 224.64 
z
" style="fill:#1f77b4;"/>
   </g>
   <g id="patch_56">
    <path clip-path="url(#p6f589562d4)" d="M 205.730909 224.64 
L 208.774545 224.64 
L 208.774545 224.64 
L 205.730909 224.64 
z
" style="fill:#1f77b4;"/>
   </g>
   <g id="patch_57">
    <path clip-path="url(#p6f589562d4)" d="M 208.774545 224.64 
L 211.818182 224.64 
L 211.818182 224.64 
L 208.774545 224.64 
z
" style="fill:#1f77b4;"/>
   </g>
   <g id="patch_58">
    <path clip-path="url(#p6f589562d4)" d="M 211.818182 224.64 
L 214.861818 224.64 
L 214.861818 224.393469 
L 211.818182 224.393469 
z
" style="fill:#1f77b4;"/>
   </g>
   <g id="patch_59">
    <path clip-path="url(#p6f589562d4)" d="M 214.861818 224.64 
L 217.905455 224.64 
L 217.905455 224.64 
L 214.861818 224.64 
z
" style="fill:#1f77b4;"/>
   </g>
   <g id="patch_60">
    <path clip-path="url(#p6f589562d4)" d="M 217.905455 224.64 
L 220.949091 224.64 
L 220.949091 224.393469 
L 217.905455 224.393469 
z
" style="fill:#1f77b4;"/>
   </g>
   <g id="patch_61">
    <path clip-path="url(#p6f589562d4)" d="M 220.949091 224.64 
L 223.992727 224.64 
L 223.992727 224.393469 
L 220.949091 224.393469 
z
" style="fill:#1f77b4;"/>
   </g>
   <g id="patch_62">
    <path clip-path="url(#p6f589562d4)" d="M 223.992727 224.64 
L 227.036364 224.64 
L 227.036364 224.393469 
L 223.992727 224.393469 
z
" style="fill:#1f77b4;"/>
   </g>
   <g id="patch_63">
    <path clip-path="url(#p6f589562d4)" d="M 227.036364 224.64 
L 230.08 224.64 
L 230.08 224.393469 
L 227.036364 224.393469 
z
" style="fill:#1f77b4;"/>
   </g>
   <g id="patch_64">
    <path clip-path="url(#p6f589562d4)" d="M 230.08 224.64 
L 233.123636 224.64 
L 233.123636 224.393469 
L 230.08 224.393469 
z
" style="fill:#1f77b4;"/>
   </g>
   <g id="patch_65">
    <path clip-path="url(#p6f589562d4)" d="M 233.123636 224.64 
L 236.167273 224.64 
L 236.167273 224.64 
L 233.123636 224.64 
z
" style="fill:#1f77b4;"/>
   </g>
   <g id="patch_66">
    <path clip-path="url(#p6f589562d4)" d="M 236.167273 224.64 
L 239.210909 224.64 
L 239.210909 224.393469 
L 236.167273 224.393469 
z
" style="fill:#1f77b4;"/>
   </g>
   <g id="patch_67">
    <path clip-path="url(#p6f589562d4)" d="M 239.210909 224.64 
L 242.254545 224.64 
L 242.254545 224.393469 
L 239.210909 224.393469 
z
" style="fill:#1f77b4;"/>
   </g>
   <g id="patch_68">
    <path clip-path="url(#p6f589562d4)" d="M 242.254545 224.64 
L 245.298182 224.64 
L 245.298182 224.64 
L 242.254545 224.64 
z
" style="fill:#1f77b4;"/>
   </g>
   <g id="patch_69">
    <path clip-path="url(#p6f589562d4)" d="M 245.298182 224.64 
L 248.341818 224.64 
L 248.341818 224.64 
L 245.298182 224.64 
z
" style="fill:#1f77b4;"/>
   </g>
   <g id="patch_70">
    <path clip-path="url(#p6f589562d4)" d="M 248.341818 224.64 
L 251.385455 224.64 
L 251.385455 224.64 
L 248.341818 224.64 
z
" style="fill:#1f77b4;"/>
   </g>
   <g id="patch_71">
    <path clip-path="url(#p6f589562d4)" d="M 251.385455 224.64 
L 254.429091 224.64 
L 254.429091 224.64 
L 251.385455 224.64 
z
" style="fill:#1f77b4;"/>
   </g>
   <g id="patch_72">
    <path clip-path="url(#p6f589562d4)" d="M 254.429091 224.64 
L 257.472727 224.64 
L 257.472727 224.64 
L 254.429091 224.64 
z
" style="fill:#1f77b4;"/>
   </g>
   <g id="patch_73">
    <path clip-path="url(#p6f589562d4)" d="M 257.472727 224.64 
L 260.516364 224.64 
L 260.516364 224.64 
L 257.472727 224.64 
z
" style="fill:#1f77b4;"/>
   </g>
   <g id="patch_74">
    <path clip-path="url(#p6f589562d4)" d="M 260.516364 224.64 
L 263.56 224.64 
L 263.56 224.393469 
L 260.516364 224.393469 
z
" style="fill:#1f77b4;"/>
   </g>
   <g id="patch_75">
    <path clip-path="url(#p6f589562d4)" d="M 263.56 224.64 
L 266.603636 224.64 
L 266.603636 224.393469 
L 263.56 224.393469 
z
" style="fill:#1f77b4;"/>
   </g>
   <g id="patch_76">
    <path clip-path="url(#p6f589562d4)" d="M 266.603636 224.64 
L 269.647273 224.64 
L 269.647273 224.393469 
L 266.603636 224.393469 
z
" style="fill:#1f77b4;"/>
   </g>
   <g id="patch_77">
    <path clip-path="url(#p6f589562d4)" d="M 269.647273 224.64 
L 272.690909 224.64 
L 272.690909 224.64 
L 269.647273 224.64 
z
" style="fill:#1f77b4;"/>
   </g>
   <g id="patch_78">
    <path clip-path="url(#p6f589562d4)" d="M 272.690909 224.64 
L 275.734545 224.64 
L 275.734545 224.393469 
L 272.690909 224.393469 
z
" style="fill:#1f77b4;"/>
   </g>
   <g id="patch_79">
    <path clip-path="url(#p6f589562d4)" d="M 275.734545 224.64 
L 278.778182 224.64 
L 278.778182 224.64 
L 275.734545 224.64 
z
" style="fill:#1f77b4;"/>
   </g>
   <g id="patch_80">
    <path clip-path="url(#p6f589562d4)" d="M 278.778182 224.64 
L 281.821818 224.64 
L 281.821818 224.64 
L 278.778182 224.64 
z
" style="fill:#1f77b4;"/>
   </g>
   <g id="patch_81">
    <path clip-path="url(#p6f589562d4)" d="M 281.821818 224.64 
L 284.865455 224.64 
L 284.865455 224.393469 
L 281.821818 224.393469 
z
" style="fill:#1f77b4;"/>
   </g>
   <g id="patch_82">
    <path clip-path="url(#p6f589562d4)" d="M 284.865455 224.64 
L 287.909091 224.64 
L 287.909091 224.64 
L 284.865455 224.64 
z
" style="fill:#1f77b4;"/>
   </g>
   <g id="patch_83">
    <path clip-path="url(#p6f589562d4)" d="M 287.909091 224.64 
L 290.952727 224.64 
L 290.952727 224.393469 
L 287.909091 224.393469 
z
" style="fill:#1f77b4;"/>
   </g>
   <g id="patch_84">
    <path clip-path="url(#p6f589562d4)" d="M 290.952727 224.64 
L 293.996364 224.64 
L 293.996364 224.393469 
L 290.952727 224.393469 
z
" style="fill:#1f77b4;"/>
   </g>
   <g id="patch_85">
    <path clip-path="url(#p6f589562d4)" d="M 293.996364 224.64 
L 297.04 224.64 
L 297.04 224.64 
L 293.996364 224.64 
z
" style="fill:#1f77b4;"/>
   </g>
   <g id="patch_86">
    <path clip-path="url(#p6f589562d4)" d="M 297.04 224.64 
L 300.083636 224.64 
L 300.083636 224.393469 
L 297.04 224.393469 
z
" style="fill:#1f77b4;"/>
   </g>
   <g id="patch_87">
    <path clip-path="url(#p6f589562d4)" d="M 300.083636 224.64 
L 303.127273 224.64 
L 303.127273 224.64 
L 300.083636 224.64 
z
" style="fill:#1f77b4;"/>
   </g>
   <g id="patch_88">
    <path clip-path="url(#p6f589562d4)" d="M 303.127273 224.64 
L 306.170909 224.64 
L 306.170909 224.64 
L 303.127273 224.64 
z
" style="fill:#1f77b4;"/>
   </g>
   <g id="patch_89">
    <path clip-path="url(#p6f589562d4)" d="M 306.170909 224.64 
L 309.214545 224.64 
L 309.214545 224.64 
L 306.170909 224.64 
z
" style="fill:#1f77b4;"/>
   </g>
   <g id="patch_90">
    <path clip-path="url(#p6f589562d4)" d="M 309.214545 224.64 
L 312.258182 224.64 
L 312.258182 224.393469 
L 309.214545 224.393469 
z
" style="fill:#1f77b4;"/>
   </g>
   <g id="patch_91">
    <path clip-path="url(#p6f589562d4)" d="M 312.258182 224.64 
L 315.301818 224.64 
L 315.301818 224.393469 
L 312.258182 224.393469 
z
" style="fill:#1f77b4;"/>
   </g>
   <g id="patch_92">
    <path clip-path="url(#p6f589562d4)" d="M 315.301818 224.64 
L 318.345455 224.64 
L 318.345455 224.393469 
L 315.301818 224.393469 
z
" style="fill:#1f77b4;"/>
   </g>
   <g id="patch_93">
    <path clip-path="url(#p6f589562d4)" d="M 318.345455 224.64 
L 321.389091 224.64 
L 321.389091 224.64 
L 318.345455 224.64 
z
" style="fill:#1f77b4;"/>
   </g>
   <g id="patch_94">
    <path clip-path="url(#p6f589562d4)" d="M 321.389091 224.64 
L 324.432727 224.64 
L 324.432727 224.64 
L 321.389091 224.64 
z
" style="fill:#1f77b4;"/>
   </g>
   <g id="patch_95">
    <path clip-path="url(#p6f589562d4)" d="M 324.432727 224.64 
L 327.476364 224.64 
L 327.476364 224.393469 
L 324.432727 224.393469 
z
" style="fill:#1f77b4;"/>
   </g>
   <g id="patch_96">
    <path clip-path="url(#p6f589562d4)" d="M 327.476364 224.64 
L 330.52 224.64 
L 330.52 224.64 
L 327.476364 224.64 
z
" style="fill:#1f77b4;"/>
   </g>
   <g id="patch_97">
    <path clip-path="url(#p6f589562d4)" d="M 330.52 224.64 
L 333.563636 224.64 
L 333.563636 224.64 
L 330.52 224.64 
z
" style="fill:#1f77b4;"/>
   </g>
   <g id="patch_98">
    <path clip-path="url(#p6f589562d4)" d="M 333.563636 224.64 
L 336.607273 224.64 
L 336.607273 224.393469 
L 333.563636 224.393469 
z
" style="fill:#1f77b4;"/>
   </g>
   <g id="patch_99">
    <path clip-path="url(#p6f589562d4)" d="M 336.607273 224.64 
L 339.650909 224.64 
L 339.650909 224.146939 
L 336.607273 224.146939 
z
" style="fill:#1f77b4;"/>
   </g>
   <g id="patch_100">
    <path clip-path="url(#p6f589562d4)" d="M 339.650909 224.64 
L 342.694545 224.64 
L 342.694545 224.64 
L 339.650909 224.64 
z
" style="fill:#1f77b4;"/>
   </g>
   <g id="patch_101">
    <path clip-path="url(#p6f589562d4)" d="M 342.694545 224.64 
L 345.738182 224.64 
L 345.738182 224.64 
L 342.694545 224.64 
z
" style="fill:#1f77b4;"/>
   </g>
   <g id="patch_102">
    <path clip-path="url(#p6f589562d4)" d="M 345.738182 224.64 
L 348.781818 224.64 
L 348.781818 224.64 
L 345.738182 224.64 
z
" style="fill:#1f77b4;"/>
   </g>
   <g id="matplotlib.axis_1">
    <g id="xtick_1">
     <g id="line2d_1">
      <defs>
       <path d="M 0 0 
L 0 3.5 
" id="m73c876bf92" style="stroke:#000000;stroke-width:0.8;"/>
      </defs>
      <g>
       <use style="stroke:#000000;stroke-width:0.8;" x="44.418182" xlink:href="#m73c876bf92" y="224.64"/>
      </g>
     </g>
     <g id="text_1">
      <!-- 0 -->
      <g transform="translate(41.918182 238.515)scale(0.1 -0.1)">
       <defs>
        <path d="M 3.125 29.296875 
Q 3.90625 50 6.4375 56.046875 
Q 8.984375 62.109375 13.671875 66.015625 
Q 18.359375 69.921875 25.1875 69.921875 
Q 32.03125 69.921875 37.109375 64.25 
Q 42.1875 58.59375 43.75 50 
Q 45.3125 41.40625 44.71875 30.265625 
Q 44.140625 19.140625 40.8125 12.109375 
Q 37.5 5.078125 30.859375 2.34375 
Q 24.21875 -0.390625 17.578125 2.921875 
Q 10.9375 6.25 8.203125 11.71875 
Q 5.46875 17.1875 4.296875 23.234375 
Q 3.125 29.296875 3.90625 50 
z
M 12.890625 52.734375 
Q 10.546875 31.25 12.5 22.84375 
Q 14.453125 14.453125 18.9375 10.9375 
Q 23.4375 7.421875 28.125 9.5625 
Q 32.8125 11.71875 34.953125 18.15625 
Q 37.109375 24.609375 37.109375 32.21875 
Q 37.109375 39.84375 36.515625 46.09375 
Q 35.9375 52.34375 33 57.421875 
Q 30.078125 62.5 25.1875 62.6875 
Q 20.3125 62.890625 16.59375 57.8125 
Q 12.890625 52.734375 10.546875 31.25 
z
" id="SimHei-48"/>
       </defs>
       <use xlink:href="#SimHei-48"/>
      </g>
     </g>
    </g>
    <g id="xtick_2">
     <g id="line2d_2">
      <g>
       <use style="stroke:#000000;stroke-width:0.8;" x="105.290909" xlink:href="#m73c876bf92" y="224.64"/>
      </g>
     </g>
     <g id="text_2">
      <!-- 2 -->
      <g transform="translate(102.790909 238.515)scale(0.1 -0.1)">
       <defs>
        <path d="M 4.6875 3.90625 
Q 5.078125 9.765625 10.15625 14.453125 
Q 15.234375 19.140625 23.046875 29.09375 
Q 30.859375 39.0625 33.203125 44.53125 
Q 35.546875 50 34.953125 53.90625 
Q 34.375 57.8125 31.25 60.34375 
Q 28.125 62.890625 24.015625 62.5 
Q 19.921875 62.109375 16.203125 59.375 
Q 12.5 56.640625 10.546875 51.171875 
L 3.125 52.34375 
Q 6.25 61.328125 11.125 65.421875 
Q 16.015625 69.53125 22.65625 69.921875 
Q 26.5625 70.3125 29.6875 69.71875 
Q 32.8125 69.140625 36.125 66.984375 
Q 39.453125 64.84375 41.59375 60.546875 
Q 43.75 56.25 43.15625 50.1875 
Q 42.578125 44.140625 37.109375 35.734375 
Q 31.640625 27.34375 16.015625 9.375 
L 44.140625 9.375 
L 44.140625 2.34375 
L 4.6875 2.34375 
z
" id="SimHei-50"/>
       </defs>
       <use xlink:href="#SimHei-50"/>
      </g>
     </g>
    </g>
    <g id="xtick_3">
     <g id="line2d_3">
      <g>
       <use style="stroke:#000000;stroke-width:0.8;" x="166.163636" xlink:href="#m73c876bf92" y="224.64"/>
      </g>
     </g>
     <g id="text_3">
      <!-- 4 -->
      <g transform="translate(163.663636 238.515)scale(0.1 -0.1)">
       <defs>
        <path d="M 31.25 17.1875 
L 1.171875 17.1875 
L 1.171875 23.828125 
L 32.8125 69.53125 
L 38.671875 69.53125 
L 38.671875 23.828125 
L 48.046875 23.828125 
L 48.046875 17.1875 
L 38.671875 17.1875 
L 38.671875 2.34375 
L 31.25 2.34375 
z
M 31.25 23.828125 
L 31.25 54.6875 
L 9.375 23.828125 
z
" id="SimHei-52"/>
       </defs>
       <use xlink:href="#SimHei-52"/>
      </g>
     </g>
    </g>
    <g id="xtick_4">
     <g id="line2d_4">
      <g>
       <use style="stroke:#000000;stroke-width:0.8;" x="227.036364" xlink:href="#m73c876bf92" y="224.64"/>
      </g>
     </g>
     <g id="text_4">
      <!-- 6 -->
      <g transform="translate(224.536364 238.515)scale(0.1 -0.1)">
       <defs>
        <path d="M 3.515625 19.53125 
Q 4.296875 30.859375 6.046875 34.765625 
Q 7.8125 38.671875 11.328125 44.53125 
L 27.34375 69.53125 
L 36.328125 69.53125 
L 19.921875 43.75 
Q 30.46875 46.484375 36.71875 42.96875 
Q 42.96875 39.453125 45.109375 34.953125 
Q 47.265625 30.46875 47.453125 25.1875 
Q 47.65625 19.921875 45.890625 14.84375 
Q 44.140625 9.765625 39.640625 5.65625 
Q 35.15625 1.5625 27.140625 1.171875 
Q 19.140625 0.78125 13.46875 4.09375 
Q 7.8125 7.421875 5.65625 13.46875 
Q 3.515625 19.53125 4.296875 30.859375 
z
M 12.5 16.015625 
Q 19.53125 8.59375 25.390625 8.203125 
Q 31.25 7.8125 35.15625 12.109375 
Q 39.0625 16.40625 39.0625 24.609375 
Q 39.0625 32.8125 34.171875 35.9375 
Q 29.296875 39.0625 23.234375 38.28125 
Q 17.1875 37.5 14.453125 32.421875 
Q 11.71875 27.34375 12.109375 21.671875 
Q 12.5 16.015625 19.53125 8.59375 
z
" id="SimHei-54"/>
       </defs>
       <use xlink:href="#SimHei-54"/>
      </g>
     </g>
    </g>
    <g id="xtick_5">
     <g id="line2d_5">
      <g>
       <use style="stroke:#000000;stroke-width:0.8;" x="287.909091" xlink:href="#m73c876bf92" y="224.64"/>
      </g>
     </g>
     <g id="text_5">
      <!-- 8 -->
      <g transform="translate(285.409091 238.515)scale(0.1 -0.1)">
       <defs>
        <path d="M 2.734375 16.796875 
Q 2.734375 26.171875 5.078125 30.65625 
Q 7.421875 35.15625 12.890625 37.890625 
Q 8.203125 40.625 6.640625 43.9375 
Q 5.078125 47.265625 4.875 51.5625 
Q 4.6875 55.859375 6.046875 58.984375 
Q 7.421875 62.109375 10.15625 64.84375 
Q 12.890625 67.578125 16.203125 68.546875 
Q 19.53125 69.53125 23.4375 69.53125 
Q 27.34375 69.53125 30.46875 68.75 
Q 33.59375 67.96875 37.109375 65.421875 
Q 40.625 62.890625 42.1875 58.203125 
Q 43.75 53.515625 41.984375 47.265625 
Q 40.234375 41.015625 32.8125 37.5 
Q 39.453125 35.546875 42.1875 31.4375 
Q 44.921875 27.34375 44.921875 21.484375 
Q 44.921875 15.625 43.15625 12.109375 
Q 41.40625 8.59375 39.25 6.25 
Q 37.109375 3.90625 33.390625 2.53125 
Q 29.6875 1.171875 24.015625 1.171875 
Q 18.359375 1.171875 14.25 2.53125 
Q 10.15625 3.90625 7.421875 6.640625 
Q 4.6875 9.375 3.703125 13.078125 
Q 2.734375 16.796875 2.734375 26.171875 
z
M 10.9375 26.5625 
Q 10.546875 17.1875 12.296875 13.671875 
Q 14.0625 10.15625 18.75 9.171875 
Q 23.4375 8.203125 28.515625 9.375 
Q 33.59375 10.546875 35.546875 14.84375 
Q 37.5 19.140625 36.90625 23.4375 
Q 36.328125 27.734375 32.03125 30.65625 
Q 27.734375 33.59375 22.65625 33.203125 
Q 17.578125 32.8125 14.25 29.6875 
Q 10.9375 26.5625 10.546875 17.1875 
z
M 12.109375 56.25 
Q 12.109375 48.4375 14.84375 44.921875 
Q 17.578125 41.40625 23.4375 41.40625 
Q 29.296875 41.40625 32.21875 44.921875 
Q 35.15625 48.4375 34.953125 53.3125 
Q 34.765625 58.203125 31.4375 60.546875 
Q 28.125 62.890625 22.453125 62.5 
Q 16.796875 62.109375 14.453125 59.171875 
Q 12.109375 56.25 12.109375 48.4375 
z
" id="SimHei-56"/>
       </defs>
       <use xlink:href="#SimHei-56"/>
      </g>
     </g>
    </g>
    <g id="xtick_6">
     <g id="line2d_6">
      <g>
       <use style="stroke:#000000;stroke-width:0.8;" x="348.781818" xlink:href="#m73c876bf92" y="224.64"/>
      </g>
     </g>
     <g id="text_6">
      <!-- 10 -->
      <g transform="translate(343.781818 238.515)scale(0.1 -0.1)">
       <defs>
        <path d="M 21.875 56.25 
Q 16.796875 51.171875 8.984375 46.484375 
L 8.984375 53.90625 
Q 18.75 60.546875 25 69.53125 
L 29.6875 69.53125 
L 29.6875 2.34375 
L 21.875 2.34375 
z
" id="SimHei-49"/>
       </defs>
       <use xlink:href="#SimHei-49"/>
       <use x="50" xlink:href="#SimHei-48"/>
      </g>
     </g>
    </g>
   </g>
   <g id="matplotlib.axis_2">
    <g id="ytick_1">
     <g id="line2d_7">
      <defs>
       <path d="M 0 0 
L -3.5 0 
" id="m5cf28464cb" style="stroke:#000000;stroke-width:0.8;"/>
      </defs>
      <g>
       <use style="stroke:#000000;stroke-width:0.8;" x="29.2" xlink:href="#m5cf28464cb" y="224.64"/>
      </g>
     </g>
     <g id="text_7">
      <!-- 0 -->
      <g transform="translate(17.2 228.0775)scale(0.1 -0.1)">
       <use xlink:href="#SimHei-48"/>
      </g>
     </g>
    </g>
    <g id="ytick_2">
     <g id="line2d_8">
      <g>
       <use style="stroke:#000000;stroke-width:0.8;" x="29.2" xlink:href="#m5cf28464cb" y="199.986939"/>
      </g>
     </g>
     <g id="text_8">
      <!-- 100 -->
      <g transform="translate(7.2 203.424439)scale(0.1 -0.1)">
       <use xlink:href="#SimHei-49"/>
       <use x="50" xlink:href="#SimHei-48"/>
       <use x="100" xlink:href="#SimHei-48"/>
      </g>
     </g>
    </g>
    <g id="ytick_3">
     <g id="line2d_9">
      <g>
       <use style="stroke:#000000;stroke-width:0.8;" x="29.2" xlink:href="#m5cf28464cb" y="175.333878"/>
      </g>
     </g>
     <g id="text_9">
      <!-- 200 -->
      <g transform="translate(7.2 178.771378)scale(0.1 -0.1)">
       <use xlink:href="#SimHei-50"/>
       <use x="50" xlink:href="#SimHei-48"/>
       <use x="100" xlink:href="#SimHei-48"/>
      </g>
     </g>
    </g>
    <g id="ytick_4">
     <g id="line2d_10">
      <g>
       <use style="stroke:#000000;stroke-width:0.8;" x="29.2" xlink:href="#m5cf28464cb" y="150.680816"/>
      </g>
     </g>
     <g id="text_10">
      <!-- 300 -->
      <g transform="translate(7.2 154.118316)scale(0.1 -0.1)">
       <defs>
        <path d="M 3.90625 19.140625 
L 10.9375 20.3125 
Q 12.5 15.234375 16.015625 11.90625 
Q 19.53125 8.59375 24.796875 8.78125 
Q 30.078125 8.984375 33.203125 13.078125 
Q 36.328125 17.1875 35.9375 22.453125 
Q 35.546875 27.734375 31.828125 30.65625 
Q 28.125 33.59375 19.921875 34.765625 
L 19.921875 39.84375 
Q 28.125 40.625 31.828125 44.140625 
Q 35.546875 47.65625 35.15625 53.3125 
Q 34.765625 58.984375 30.078125 61.515625 
Q 25.390625 64.0625 20.109375 62.109375 
Q 14.84375 60.15625 11.71875 51.171875 
L 4.6875 52.34375 
Q 7.03125 59.375 11.125 64.0625 
Q 15.234375 68.75 22.265625 69.53125 
Q 29.296875 70.3125 34.5625 67.765625 
Q 39.84375 65.234375 41.984375 59.953125 
Q 44.140625 54.6875 42.578125 48.4375 
Q 41.015625 42.1875 33.59375 37.5 
Q 39.0625 35.15625 41.984375 30.46875 
Q 44.921875 25.78125 43.9375 18.15625 
Q 42.96875 10.546875 37.109375 5.859375 
Q 31.25 1.171875 23.828125 1.359375 
Q 16.40625 1.5625 10.9375 6.046875 
Q 5.46875 10.546875 3.90625 19.140625 
z
" id="SimHei-51"/>
       </defs>
       <use xlink:href="#SimHei-51"/>
       <use x="50" xlink:href="#SimHei-48"/>
       <use x="100" xlink:href="#SimHei-48"/>
      </g>
     </g>
    </g>
    <g id="ytick_5">
     <g id="line2d_11">
      <g>
       <use style="stroke:#000000;stroke-width:0.8;" x="29.2" xlink:href="#m5cf28464cb" y="126.027755"/>
      </g>
     </g>
     <g id="text_11">
      <!-- 400 -->
      <g transform="translate(7.2 129.465255)scale(0.1 -0.1)">
       <use xlink:href="#SimHei-52"/>
       <use x="50" xlink:href="#SimHei-48"/>
       <use x="100" xlink:href="#SimHei-48"/>
      </g>
     </g>
    </g>
    <g id="ytick_6">
     <g id="line2d_12">
      <g>
       <use style="stroke:#000000;stroke-width:0.8;" x="29.2" xlink:href="#m5cf28464cb" y="101.374694"/>
      </g>
     </g>
     <g id="text_12">
      <!-- 500 -->
      <g transform="translate(7.2 104.812194)scale(0.1 -0.1)">
       <defs>
        <path d="M 8.59375 20.703125 
Q 11.328125 10.15625 17.96875 8.984375 
Q 24.609375 7.8125 28.703125 10.34375 
Q 32.8125 12.890625 34.5625 16.984375 
Q 36.328125 21.09375 36.125 26.171875 
Q 35.9375 31.25 33.390625 34.765625 
Q 30.859375 38.28125 26.953125 39.453125 
Q 23.046875 40.625 18.15625 39.453125 
Q 13.28125 38.28125 10.15625 33.984375 
L 3.515625 34.765625 
Q 4.296875 37.109375 10.9375 68.359375 
L 41.796875 68.359375 
L 41.796875 61.328125 
L 16.796875 61.328125 
Q 14.84375 50.78125 12.890625 44.53125 
Q 18.75 47.265625 23.828125 47.0625 
Q 28.90625 46.875 33.59375 44.71875 
Q 38.28125 42.578125 40.421875 38.859375 
Q 42.578125 35.15625 43.546875 31.4375 
Q 44.53125 27.734375 44.328125 23.4375 
Q 44.140625 19.140625 42.578125 14.640625 
Q 41.015625 10.15625 37.890625 7.21875 
Q 34.765625 4.296875 30.265625 2.53125 
Q 25.78125 0.78125 19.921875 1.171875 
Q 14.0625 1.5625 8.78125 5.46875 
Q 3.515625 9.375 1.5625 18.75 
z
" id="SimHei-53"/>
       </defs>
       <use xlink:href="#SimHei-53"/>
       <use x="50" xlink:href="#SimHei-48"/>
       <use x="100" xlink:href="#SimHei-48"/>
      </g>
     </g>
    </g>
    <g id="ytick_7">
     <g id="line2d_13">
      <g>
       <use style="stroke:#000000;stroke-width:0.8;" x="29.2" xlink:href="#m5cf28464cb" y="76.721633"/>
      </g>
     </g>
     <g id="text_13">
      <!-- 600 -->
      <g transform="translate(7.2 80.159133)scale(0.1 -0.1)">
       <use xlink:href="#SimHei-54"/>
       <use x="50" xlink:href="#SimHei-48"/>
       <use x="100" xlink:href="#SimHei-48"/>
      </g>
     </g>
    </g>
    <g id="ytick_8">
     <g id="line2d_14">
      <g>
       <use style="stroke:#000000;stroke-width:0.8;" x="29.2" xlink:href="#m5cf28464cb" y="52.068571"/>
      </g>
     </g>
     <g id="text_14">
      <!-- 700 -->
      <g transform="translate(7.2 55.506071)scale(0.1 -0.1)">
       <defs>
        <path d="M 13.28125 2.34375 
Q 20.3125 32.03125 37.890625 61.328125 
L 4.296875 61.328125 
L 4.296875 68.359375 
L 46.09375 68.359375 
L 46.09375 61.71875 
Q 27.734375 32.03125 21.875 2.34375 
L 13.28125 2.34375 
z
" id="SimHei-55"/>
       </defs>
       <use xlink:href="#SimHei-55"/>
       <use x="50" xlink:href="#SimHei-48"/>
       <use x="100" xlink:href="#SimHei-48"/>
      </g>
     </g>
    </g>
    <g id="ytick_9">
     <g id="line2d_15">
      <g>
       <use style="stroke:#000000;stroke-width:0.8;" x="29.2" xlink:href="#m5cf28464cb" y="27.41551"/>
      </g>
     </g>
     <g id="text_15">
      <!-- 800 -->
      <g transform="translate(7.2 30.85301)scale(0.1 -0.1)">
       <use xlink:href="#SimHei-56"/>
       <use x="50" xlink:href="#SimHei-48"/>
       <use x="100" xlink:href="#SimHei-48"/>
      </g>
     </g>
    </g>
   </g>
   <g id="patch_103">
    <path d="M 29.2 224.64 
L 29.2 7.2 
" style="fill:none;stroke:#000000;stroke-linecap:square;stroke-linejoin:miter;stroke-width:0.8;"/>
   </g>
   <g id="patch_104">
    <path d="M 364 224.64 
L 364 7.2 
" style="fill:none;stroke:#000000;stroke-linecap:square;stroke-linejoin:miter;stroke-width:0.8;"/>
   </g>
   <g id="patch_105">
    <path d="M 29.2 224.64 
L 364 224.64 
" style="fill:none;stroke:#000000;stroke-linecap:square;stroke-linejoin:miter;stroke-width:0.8;"/>
   </g>
   <g id="patch_106">
    <path d="M 29.2 7.2 
L 364 7.2 
" style="fill:none;stroke:#000000;stroke-linecap:square;stroke-linejoin:miter;stroke-width:0.8;"/>
   </g>
  </g>
 </g>
 <defs>
  <clipPath id="p6f589562d4">
   <rect height="217.44" width="334.8" x="29.2" y="7.2"/>
  </clipPath>
 </defs>
</svg>
